<svg xmlns="http://www.w3.org/2000/svg" width="32" height="32" viewBox="0 0 32 32">
    <path fill="#D9D9D9" fill-rule="evenodd" d="M26 9v18c0 2.21-1.79 4-4 4H10c-2.21 0-4-1.79-4-4V9h20zm-15 3c-.513 0-.936.386-.993.883L10 13v14c0 .552.448 1 1 1 .513 0 .936-.386.993-.883L12 27V13c0-.552-.448-1-1-1zm5 0c-.513 0-.936.386-.993.883L15 13v14c0 .552.448 1 1 1 .513 0 .936-.386.993-.883L17 27V13c0-.552-.448-1-1-1zm5 0c-.513 0-.936.386-.993.883L20 13v14c0 .552.448 1 1 1 .513 0 .936-.386.993-.883L22 27V13c0-.552-.448-1-1-1zM16 2c-1.657 0-3 1.343-3 3h-2c0-2.761 2.239-5 5-5s5 2.239 5 5h5.5c.828 0 1.5.672 1.5 1.5S27.328 8 26.5 8h-21C4.672 8 4 7.328 4 6.5S4.672 5 5.5 5H19c0-1.657-1.343-3-3-3z"/>
</svg>
